#Unknown ASF file
:ROOT_YZX
:FOOT_3DOF
:FULLY-SPECIFIED
:DEGREES
1036
root 10.3398 17.7661 -26.2181 0.750218 -19.9317 -5.70041
lfemur -27.5359 -8.73602 -11.9247
ltibia 32.8458
lfoot -9.5275 0 -14.7127
ltoes -15.2386
rfemur 9.8886 7.18073 32.5804
rtibia 20.7666
rfoot -12.1999 0 10.0397
rtoes -0.208508
lowerback 10.1428 2.75268 3.3513
upperback 1.49443 4.15644 3.43912
thorax -4.14134 2.01941 1.13733
lowerneck -14.0884 -10.625 -19.4376
upperneck 20.0957 -13.649 14.1653
head 11.2244 -6.37641 6.2628
lclavicle -1.36267e-013 1.19271e-014
lhumerus -44.2564 13.6309 78.0392
lradius 32.0566
lwrist 2.19355
lhand -12.2699 31.1797
lfingers 7.12502
lthumb 13.7969 60.7021
rclavicle -1.36267e-013 1.19271e-014
rhumerus -34.7636 -11.674 -79.429
rradius 25.7392
rwrist 5.27061
rhand -22.2996 13.4725
rfingers 7.12502
rthumb 4.11942 -16.4674
1037
root 10.2205 17.8367 -25.8034 0.70261 -20.4982 -5.11336
lfemur -25.5672 -7.99063 -12.9672
ltibia 32.3115
lfoot -9.45258 0 -15.5922
ltoes -14.9368
rfemur 9.45067 6.59786 31.5817
rtibia 23.9108
rfoot -9.20463 0 11.0422
rtoes -1.18882
lowerback 9.82731 2.80154 2.74725
upperback 1.2772 4.14186 3.16291
thorax -4.21455 2.02016 1.19797
lowerneck -14.032 -10.5527 -19.7361
upperneck 20.2549 -13.6067 14.54
head 11.3212 -6.34982 6.47269
lclavicle 4.38817e-014 5.56597e-015
lhumerus -45.2664 14.3387 77.2462
lradius 31.1683
lwrist 1.36281
lhand -12.6512 29.697
lfingers 7.12502
lthumb 13.4294 59.2441
rclavicle 4.38817e-014 5.56597e-015
rhumerus -35.0992 -9.42813 -80.6669
rradius 26.8727
rwrist 4.52562
rhand -21.3282 12.0503
rfingers 7.12502
rthumb 5.05742 -17.8693
1038
root 10.0985 17.8982 -25.3537 0.304159 -21.6348 -4.36183
lfemur -22.9736 -6.78067 -14.3375
ltibia 31.8014
lfoot -10.8594 0 -14.5443
ltoes -25.2285
rfemur 8.55409 5.8215 30.0537
rtibia 28.4414
rfoot -4.48126 0 12.436
rtoes 0.959588
lowerback 9.63437 2.86844 1.86755
upperback 0.9121 4.13954 2.94749
thorax -4.53435 2.03139 1.46393
lowerneck -12.7591 -10.1788 -19.8642
upperneck 20.2126 -13.3371 14.6924
head 11.0261 -6.28503 6.64747
lclavicle -1.61016e-014 -1.70955e-014
lhumerus -47.2685 14.7546 76.4803
lradius 30.9352
lwrist 1.6223
lhand -12.1274 30.6075
lfingers 7.12502
lthumb 13.9343 60.1205
rclavicle -1.61016e-014 -1.70955e-014
rhumerus -35.92 -7.46848 -81.2304
rradius 28.1062
rwrist 5.21889
rhand -19.375 13.0746
rfingers 7.12502
rthumb 6.94316 -16.7915
1039
root 9.97016 17.9354 -24.9203 -0.190532 -22.6986 -3.79912
lfemur -20.486 -5.12562 -15.3491
ltibia 31.3111
lfoot -10.7145 0 -14.9531
ltoes -21.984
rfemur 5.97432 4.17285 28.4223
rtibia 35.2136
rfoot 2.4592 0 13.2262
rtoes 3.74274
lowerback 9.94358 2.94051 1.1238
upperback 0.863452 4.16328 2.8519
thorax -4.80402 2.05548 1.75902
lowerneck -14.4732 -10.3659 -19.4752
upperneck 21.8267 -13.3704 13.981
head 11.8839 -6.27489 6.29438
lclavicle 3.50358e-014 1.63003e-014
lhumerus -47.5704 15.0695 76.4579
lradius 29.9373
lwrist 0.404316
lhand -11.3229 31.4443
lfingers 7.12502
lthumb 14.7094 60.9025
rclavicle 3.50358e-014 1.63003e-014
rhumerus -35.7141 -5.43546 -82.0139
rradius 29.7713
rwrist 4.03949
rhand -19.6929 12.3209
rfingers 7.12502
rthumb 6.63627 -17.5551
1040
root 9.85647 17.9153 -24.4913 -1.12838 -24.2661 -2.62411
lfemur -17.7618 -3.87241 -17.0682
ltibia 31.5241
lfoot -11.7957 0 -15.0215
ltoes -21.6111
rfemur 2.4721 2.22382 25.5138
rtibia 42.9733
rfoot 12.7488 0 14.28
rtoes 4.78394
lowerback 9.94761 2.85894 0.0543617
upperback 0.842413 3.92589 2.58179
thorax -4.87429 1.95875 2.10849
lowerneck -13.4023 -9.62369 -19.5753
upperneck 22.1008 -12.5609 14.1057
head 11.6289 -5.96297 6.56282
lclavicle 2.93704e-014 -1.47101e-014
lhumerus -48.4794 15.64 75.9455
lradius 28.5065
lwrist -0.171536
lhand -9.70655 32.7521
lfingers 7.12502
lthumb 16.2662 62.0898
rclavicle 2.93704e-014 -1.47101e-014
rhumerus -35.8372 -3.87607 -82.3668
rradius 30.9799
rwrist 2.99445
rhand -21.0215 13.4117
rfingers 7.12502
rthumb 5.35357 -16.5006
1041
root 9.75855 17.8852 -24.0867 -1.80031 -25.2198 -0.82238
lfemur -15.4616 -3.4373 -19.5799
ltibia 31.5151
lfoot -11.5798 0 -14.8663
ltoes -2.8318
rfemur -2.29721 -0.0398469 21.8789
rtibia 51.319
rfoot 21.6184 0 15.001
rtoes 0.545953
lowerback 9.86713 2.68482 -1.09609
upperback 1.47462 3.51841 1.82406
thorax -4.17235 1.7649 2.04137
lowerneck -15.0083 -9.64652 -18.7322
upperneck 23.0408 -12.5089 13.7388
head 12.2055 -5.84692 6.27601
lclavicle -1.07841e-014 -8.74653e-015
lhumerus -46.9702 15.4329 76.2752
lradius 26.8697
lwrist -0.930507
lhand -11.2201 30.1382
lfingers 7.12502
lthumb 14.8084 59.5891
rclavicle -1.07841e-014 -8.74653e-015
rhumerus -33.9468 -3.4006 -83.0343
rradius 32.6709
rwrist 1.83791
rhand -21.2088 9.55114
rfingers 7.12502
rthumb 5.17276 -20.3657
